<svg width="1440" height="251" viewBox="0 0 1440 251" fill="none" xmlns="http://www.w3.org/2000/svg">
<g filter="url(#filter0_dddddd_3_3)">
<path d="M80.16 159.56C80.08 159.72 80.16 159.88 80.24 160.44C82.24 160.68 84.16 160.92 86.08 161.16C88.32 161.48 90.56 161.72 92.72 162.04C97.36 162.76 101.6 161.96 105.44 159.16C106.88 158.12 108.4 157.16 109.92 156.2C110.56 155.8 111.2 155.56 111.84 155.4C112.08 155.32 112.48 155.56 112.64 155.8C112.8 156.04 112.56 156.36 112.56 156.68C112.56 156.76 112.4 156.84 112.4 156.92C106.64 161.72 100.56 165.48 92.72 165.16C88.88 164.92 85.12 164.68 81.36 164.36C80.96 164.36 80.56 164.28 80.08 164.2C78.96 164.04 78.16 164.52 77.68 165.64C76.96 167 76.24 168.36 75.44 169.72C74.4 171.56 73.04 173.24 71.36 174.6C69.2 176.28 66.8 177.08 64.16 177C59.28 176.84 56.4 171.8 58.88 167.56C60 165.56 61.68 164.04 63.76 163.16C65.68 162.36 67.68 161.88 69.68 161.32C70.56 161 71.44 160.84 72.56 160.6C72.88 159.32 73.28 158.12 73.36 156.84C74 149.48 74.24 142.12 73.52 134.76C73.28 131.88 73.12 128.92 72.96 126.04C72.4 118.76 71.84 111.48 71.2 104.2C70.56 96.84 70.32 89.48 70.4 82.12C70.48 79.32 70.96 76.6 71.28 73.88C71.28 73.64 71.52 73.32 71.68 73C72.64 73.24 72.4 73.96 72.4 74.44C72.32 77.72 72.08 81 72.16 84.28C72.32 89.88 72.64 95.56 72.96 101.24C73.36 107.4 73.84 113.56 74.32 119.72C74.48 122.2 74.64 124.6 75.44 127.08C75.52 126.44 75.6 125.8 75.6 125.16C75.36 120.2 75.04 115.24 74.8 110.2C74.48 103.72 74.16 97.24 73.92 90.68C73.68 85.4 73.6 80.04 73.44 74.76C73.44 73.96 73.52 73.16 73.68 72.44C73.68 72.2 74.16 71.88 74.4 71.88C74.64 71.88 75.04 72.28 75.04 72.52C75.2 73.48 75.2 74.52 75.28 75.56C75.76 84.36 76.16 93.24 76.64 102.04C77.04 108.36 77.44 114.76 77.84 121.08C77.92 121.8 78 122.6 78.4 123.32C78.4 122.36 78.56 121.48 78.48 120.52C78.24 112.36 78.08 104.2 77.6 96.12C77.28 89.64 76.56 83.24 76 76.84C75.84 75.08 75.68 73.32 76.16 71.32C76.8 71.48 77.28 71.48 77.68 71.72C78.32 72.04 78.64 72.84 79.68 72.76C80 72.76 80.56 73.56 80.72 74.04C81.44 75.8 82.16 77.56 82.56 79.4C83.2 82.44 83.6 85.48 84 88.52C84.4 91.64 84.72 94.68 85.04 97.72C85.12 98.6 85.2 99.48 85.28 100.28C85.76 109.88 85.84 119.4 85.2 128.92C84.64 137.72 83.68 146.52 81.28 155.08C80.8 156.52 80.48 158.04 80.16 159.56ZM67.84 173.56C70.08 170.84 71.2 167.64 71.76 164.28C71.36 164.12 71.2 163.88 70.96 163.88C68.8 163.8 66.72 164.04 64.72 164.92C63.52 165.4 62.56 166.28 61.84 167.4C60.16 170.04 61.2 173.16 64.16 174.36C65.6 174.92 66.88 174.68 67.84 173.56ZM82.48 101.16C82.8 105.64 83.04 110.04 83.28 114.52C84.08 107.32 83.84 93.32 81.04 82.76C81.2 85.96 81.36 88.68 81.6 91.48C81.84 94.68 82.24 97.96 82.48 101.16ZM75.44 131.56C75.44 132.44 75.44 133.24 75.44 134.04C75.52 134.04 75.6 134.04 75.68 134.04C75.68 133.24 75.68 132.44 75.68 131.56C75.6 131.56 75.52 131.56 75.44 131.56ZM111.311 83.24C111.551 82.12 111.631 80.92 111.791 79.24C109.551 79.72 107.631 79.88 105.871 80.44C103.631 81.08 101.871 80.44 100.031 78.84C100.591 78.52 101.071 78.04 101.551 77.96C104.591 77.4 107.631 76.84 110.751 76.44C111.951 76.28 112.991 76.04 113.711 74.84C114.191 73.88 114.351 73.96 116.831 73C116.991 73.72 117.151 74.44 117.391 75.64C117.871 74.28 118.191 73.32 118.591 72.28C119.151 72.52 119.951 72.6 120.031 72.84C120.591 74.2 122.031 73.72 122.831 74.6C123.231 74.92 124.111 74.84 124.831 74.76C127.151 74.6 129.391 74.28 131.711 74.04C132.751 73.96 133.791 73.88 134.751 73.96C135.471 74.04 135.791 74.52 135.471 75.4C131.631 76.52 127.551 76.44 123.631 77.48C123.551 77.8 123.311 78.12 123.391 78.44C124.111 86.6 123.631 94.76 123.311 102.92C122.991 112.44 122.831 121.96 122.671 131.48C122.511 140.04 122.351 148.6 122.191 157.24C122.191 158.12 122.271 159.08 122.351 160.2C123.151 160.12 123.711 160.12 124.271 159.96C127.071 159.32 129.871 158.52 132.751 157.8C133.311 157.64 133.951 157.48 134.511 157.56C134.911 157.56 135.391 158.04 135.551 158.36C135.631 158.52 135.231 159.16 134.991 159.32C134.351 159.64 133.711 159.88 133.071 160.04C130.271 160.92 127.471 161.72 124.671 162.6C123.951 162.84 122.751 163 122.591 163.48C122.191 164.6 120.831 164.68 120.591 165.8C120.511 166.12 120.191 166.36 119.871 166.76C119.391 166.36 118.911 166.04 118.431 165.64C118.031 165.96 117.551 166.68 117.231 166.6C116.591 166.44 116.111 166.6 115.391 167.24C115.071 166.76 114.831 166.28 114.511 165.72C112.671 166.2 111.071 166.6 109.391 167.08C107.631 167.56 105.871 167.48 104.031 167.24C103.391 167.16 102.831 166.84 102.031 166.52C103.151 164.92 104.591 164.68 106.111 164.52C108.911 164.28 111.471 163.48 114.271 162.6C114.191 161.08 114.191 159.72 114.031 158.44C113.471 153.72 112.911 149 112.431 144.36C112.031 141 111.791 137.64 111.551 134.36C111.071 128.28 110.591 122.2 110.191 116.12C110.031 114.04 110.111 111.96 110.031 109.96C109.711 103.64 109.871 97.4 110.191 91.16C110.351 88.52 110.991 85.88 111.311 83.24ZM114.431 81.56C114.511 80.92 114.511 80.2 114.511 79.56C114.351 79.56 114.111 79.48 113.871 79.48C113.711 80.2 113.471 80.92 113.391 81.64C111.951 89.64 111.711 97.64 111.871 105.72C112.031 111.24 112.351 116.68 112.591 122.2C112.591 122.6 112.671 123 112.671 123.4C112.991 122.52 112.991 121.72 112.911 120.84C112.911 114.76 112.751 108.68 112.831 102.6C112.911 95.56 113.391 88.52 114.431 81.56ZM116.671 79.24C115.151 91 114.991 102.84 115.951 114.68C115.951 113.88 115.951 113.16 115.951 112.36C116.031 103.8 116.271 95.24 117.151 86.68C117.391 84.52 117.551 82.36 117.711 80.28C117.711 79.72 117.471 79.24 117.311 78.44C116.911 78.92 116.671 79 116.671 79.24ZM121.471 78.2C120.991 81.4 120.991 96.76 121.711 98.84C121.951 94.76 122.191 90.76 122.351 86.68C122.431 84.36 122.191 82.04 122.111 79.72C122.031 79.32 121.791 78.92 121.471 78.2ZM113.071 127.4C113.071 127.72 113.071 128.04 113.071 128.28C113.231 128.28 113.311 128.28 113.391 128.28C113.391 127.96 113.311 127.64 113.311 127.4C113.231 127.4 113.151 127.4 113.071 127.4ZM178.661 96.2C178.821 97.16 178.981 98.12 179.141 99.08C178.901 99.48 178.741 99.96 178.421 100.36C178.261 100.6 177.781 100.6 177.541 100.6C176.421 100.44 175.781 99.8 175.701 98.68C175.701 97.56 175.781 96.28 175.781 95.08C175.861 94.44 175.781 93.72 176.021 93.08C176.261 92.12 175.141 92.44 175.061 91.8C175.061 91.16 174.821 90.6 174.661 90.04C174.021 87.64 172.901 85.56 171.141 83.8C169.301 81.88 168.101 81.8 166.101 83.56C164.021 85.48 162.501 87.88 161.141 90.36C156.741 98.52 154.101 107.16 152.261 116.12C151.301 120.84 150.421 125.56 149.781 130.28C149.381 133.88 149.301 137.48 149.221 141.08C149.221 142.6 149.621 144.12 149.941 145.64C150.261 147.32 151.061 148.68 152.261 149.96C154.261 152.2 156.661 152.84 159.381 151.4C160.981 150.6 162.501 149.48 163.781 148.28C167.221 145 169.861 141.08 172.101 136.92C172.501 136.2 172.741 135.48 172.901 134.68C173.301 132.36 173.701 129.96 174.021 127.72C173.301 126.92 172.501 127.32 171.781 127.48C168.981 127.96 166.181 128.44 163.301 128.2C161.941 128.12 161.941 128.12 160.421 127.16C160.981 125.88 162.181 125.48 163.301 125.48C166.421 125.48 169.381 124.68 172.501 124.36C174.101 124.12 175.621 123.72 176.741 122.28C177.461 121.48 178.501 121 179.381 120.36C180.261 120.52 180.981 120.68 181.861 120.84C182.501 122.52 183.061 124.2 182.741 126.2C182.501 127.72 182.741 129.32 182.741 130.84C182.741 137.72 182.661 144.6 182.741 151.4C182.741 156.52 181.861 161.48 181.541 166.6C181.461 167.48 181.301 168.36 180.261 168.92C179.781 169.24 179.541 170.04 179.061 170.76C178.421 170.36 177.941 170.04 177.381 169.64C176.901 170.28 176.581 171.16 175.461 170.6C175.301 170.52 174.821 170.92 174.421 171.16C173.621 170.76 173.781 170.04 173.701 169.4C172.421 161.48 172.101 153.48 172.181 145.48C172.181 144.6 172.101 143.64 172.101 142.28C171.381 142.84 170.901 143.08 170.661 143.48C169.221 145.16 167.941 147 166.341 148.6C164.821 150.12 163.221 151.56 161.381 152.6C156.901 155.24 152.261 155.56 147.541 153.24C144.661 151.8 142.501 149.48 140.821 146.68C138.901 143.24 137.941 139.4 137.461 135.4C136.581 127.88 137.381 120.52 139.221 113.24C141.221 105.16 144.181 97.48 148.981 90.68C151.781 86.76 154.821 83.24 159.061 80.92C160.901 79.88 162.821 79.08 164.821 78.68C170.021 77.56 174.501 79.64 176.901 84.36C178.181 86.84 178.981 89.4 179.061 92.2C179.061 92.92 179.221 93.56 179.301 94.28C179.541 95.88 179.701 97.48 179.061 99.08C179.221 98.12 179.381 97.08 178.661 96.2ZM139.861 135.16C139.381 140.6 141.221 146.2 144.341 148.68C143.621 147.24 142.901 145.8 142.261 144.28C141.701 142.76 141.301 141.16 140.821 139.64C140.421 138.2 140.181 136.68 139.861 135.16ZM142.901 137.32C142.901 140.84 143.221 144.28 145.781 147.16C144.821 143.88 143.861 140.6 142.901 137.32ZM149.221 146.52C148.901 145.48 148.581 144.36 148.261 143.24C148.021 144.52 147.941 145.72 149.221 146.52ZM231.531 121.4C231.451 120.76 231.291 120.12 231.051 119C230.171 119.8 229.771 120.12 229.371 120.6C225.131 125.32 220.491 129.72 215.691 133.88C213.771 135.48 212.651 137.32 212.171 139.88C210.971 145.32 209.451 150.68 206.491 155.56C205.451 157.24 204.251 158.84 202.651 160.04C200.251 161.96 197.451 162.68 194.411 161.88C191.451 161.08 190.011 157.96 191.371 155.16C191.931 153.96 192.731 152.76 193.611 151.8C195.771 149.4 197.931 147 200.331 145C202.171 143.4 202.811 141.56 202.651 139.32C202.491 136.28 202.491 133.16 202.251 130.04C201.691 124.52 201.051 119 200.491 113.48C199.931 108.2 199.291 103.08 198.891 97.8C198.571 94.04 198.731 90.28 198.571 86.52C198.491 85.16 198.251 83.8 198.251 82.44C198.251 81.56 198.331 80.6 199.691 81C199.851 81.08 200.331 80.76 200.411 80.52C200.811 79.8 201.451 79.8 202.091 79.56C204.651 78.52 206.731 79.8 208.811 80.92C209.691 81.4 210.411 82.36 210.731 83.32C211.691 85.88 212.571 88.44 213.291 91.08C214.571 96.2 214.731 101.4 215.051 106.68C215.451 111.72 215.051 116.76 214.891 121.88C214.811 124.76 214.331 127.64 214.011 130.52C214.011 131.08 214.011 131.56 214.011 132.28C214.651 131.96 215.131 131.72 215.531 131.4C220.731 126.76 225.611 121.88 230.091 116.52C231.131 115.24 231.531 113.96 231.611 112.28C231.691 106.52 231.851 100.76 232.251 95.08C232.651 89.88 233.531 84.68 235.131 79.64C235.611 78.28 236.171 76.92 236.891 75.64C238.171 73.24 240.251 71.8 242.811 71C245.051 70.36 246.891 71.16 247.851 73.32C249.451 76.52 249.771 79.96 249.211 83.4C248.731 86.36 248.011 89.24 247.131 92.12C246.251 94.68 245.611 97.24 246.011 99.88C246.491 103.56 245.931 107.08 245.851 110.68C245.691 117.96 245.371 125.16 245.211 132.36C244.891 143.24 243.611 154.04 242.091 164.84C241.851 166.84 240.651 167.96 239.371 169.4C238.891 169.08 238.491 168.84 237.931 168.44C237.691 168.76 237.531 169.08 237.211 169.56C236.811 169.4 236.331 169.24 235.931 169.08C235.691 169.32 235.371 169.48 235.051 169.72C234.891 169.56 234.651 169.4 234.571 169.16C234.251 167.24 233.851 165.32 233.771 163.32C233.291 155.4 232.891 147.4 232.491 139.4C232.171 133.4 231.851 127.4 231.531 121.4ZM204.011 129.88C204.171 132.52 204.171 135.16 204.251 138.12C204.491 137.72 204.571 137.56 204.571 137.48C205.051 129.4 204.891 121.32 204.171 113.24C203.611 107.8 203.211 102.36 202.731 96.84C202.491 94.28 202.411 91.72 202.091 89.16C201.931 87.56 201.611 85.96 201.211 84.36C201.211 84.04 200.811 83.8 200.331 83.16C200.251 83.88 200.171 84.2 200.171 84.52C200.571 90.12 200.971 95.64 201.451 101.16C201.931 105.96 202.491 110.76 202.891 115.56C203.291 120.36 203.691 125.08 204.011 129.88ZM199.291 158.36C201.291 154.84 201.771 151 202.011 147C201.611 147.08 201.291 147.08 201.131 147.16C198.811 149.32 196.571 151.64 195.051 154.36C194.651 155 194.411 155.8 194.251 156.52C194.091 157.96 194.811 159.08 196.411 159.64C197.691 160.12 198.491 159.8 199.291 158.36ZM204.331 86.68C205.451 101.48 206.491 116.28 207.531 131.08C207.531 131.08 207.611 131.08 207.691 131.08C207.691 130.04 207.851 128.92 207.851 127.8C208.251 118.04 207.771 108.28 206.651 98.52C206.331 95.24 205.771 91.96 205.291 88.6C205.211 87.96 204.811 87.24 204.571 86.6C204.491 86.6 204.411 86.68 204.331 86.68ZM211.131 92.28C211.691 101.64 212.171 111.4 212.731 121.08C214.331 114.76 213.291 96.12 211.131 92.28ZM238.091 103.4C238.491 96.84 238.891 90.36 239.291 83.8C237.771 90.28 237.611 96.76 238.091 103.4ZM244.011 79.24C243.211 81.72 243.051 88.6 243.611 92.04C243.931 91.64 244.171 91.4 244.251 91.08C244.491 87.32 244.331 83.56 244.011 79.24ZM235.451 88.2C234.331 93.48 233.691 105.48 234.571 108.36C234.571 106.04 234.411 103.72 234.571 101.48C234.811 97.56 235.211 93.64 235.531 89.72C235.611 89.24 235.451 88.76 235.451 88.2ZM243.771 101.8C243.851 101.72 244.011 101.56 244.091 101.48C244.011 101.4 244.011 101.4 243.931 101.32C243.851 101.4 243.771 101.48 243.691 101.64C243.691 101.64 243.771 101.72 243.771 101.8ZM300.413 74.2C300.493 74.36 300.653 74.6 300.813 74.76C301.053 74.52 301.293 74.36 301.613 74.12C302.893 75.48 302.253 77.4 303.293 79.08C303.773 79.08 304.413 79.24 305.133 79.16C309.773 78.92 314.333 78.68 318.973 78.44C324.413 78.04 329.693 77.16 334.973 75.64C336.173 75.32 337.293 74.68 338.493 74.2C339.293 73.96 340.093 73.64 340.973 73.56C341.533 73.4 342.093 73.72 342.173 74.6C341.533 75.4 340.573 75.72 339.613 76.12C335.133 78.04 330.253 78.92 325.453 79.64C318.973 80.6 312.413 80.84 305.933 81.24C305.373 81.24 304.733 81.32 304.173 81.4C304.013 81.4 303.853 81.56 303.533 81.72C303.533 82.28 303.373 83 303.373 83.64C303.613 88.68 303.773 93.72 304.013 98.84C304.413 107.16 304.893 115.4 305.293 123.72C305.613 129.56 305.773 135.4 306.013 141.24C306.413 149.64 306.813 158.04 307.213 166.44C307.293 167.72 307.533 169 306.173 169.8C305.773 170.04 305.693 170.68 305.293 171.32C304.733 170.84 304.253 170.52 303.773 170.04C303.533 170.52 303.293 170.92 303.053 171.48C302.733 171.24 302.333 171 301.933 170.76C301.693 171 301.373 171.24 301.053 171.56C300.973 171.4 300.733 171.32 300.733 171.16C300.013 167.24 299.293 163.24 298.573 159.32C296.733 148.44 295.053 137.56 293.933 126.68C293.133 119.72 292.493 112.84 291.773 105.96C291.053 98.84 291.213 91.72 291.293 84.6C291.293 84.04 291.213 83.4 291.133 82.76C289.853 82.44 288.653 82.68 287.453 82.92C284.093 83.48 280.733 84.12 277.373 84.92C273.773 85.72 270.333 87.16 267.293 89.32C266.253 90.04 265.293 90.92 264.413 91.8C262.093 94.12 261.693 95.32 261.693 98.36C260.173 99 258.893 98.92 258.013 97.96C257.373 97.32 257.293 96.68 257.533 95.8C258.013 93.88 258.973 92.2 260.413 90.68C262.973 87.96 266.093 86.04 269.533 84.6C273.213 83.16 277.053 82.2 280.893 81.56C283.533 81.08 286.173 80.76 288.813 80.36C289.773 80.28 290.653 80.04 291.373 79.88C292.653 78.12 292.013 75.64 294.093 74.2C294.573 76.04 293.053 77.64 294.013 79.56C294.813 78.52 294.653 77.48 294.893 76.44C295.053 75.56 295.293 74.68 295.533 73.8C295.613 73.48 296.013 73.32 296.413 73C297.453 75.16 295.453 77.32 296.973 79.64C297.213 78.84 297.373 78.52 297.453 78.12C297.533 77.08 297.533 76.04 297.533 75.08C297.613 74.2 297.533 73.16 298.493 72.84C299.613 72.52 300.013 73.48 300.413 74.2ZM294.333 84.52C294.253 83.88 294.173 83.24 294.093 82.6C293.853 82.6 293.613 82.6 293.373 82.6C293.293 83.24 293.053 83.88 293.053 84.52C293.053 88.2 292.973 91.88 293.053 95.56C293.213 100.12 293.373 104.68 293.773 109.16C294.893 119.64 296.173 130.12 297.373 140.6C297.373 140.92 297.453 141.16 297.533 141.48C297.773 140.52 297.693 139.56 297.613 138.6C297.213 134.52 296.813 130.44 296.413 126.36C296.013 121.56 295.613 116.76 295.213 111.96C294.893 107.64 294.573 103.24 294.413 98.92C294.253 94.12 294.333 89.32 294.333 84.52ZM297.293 82.92C297.293 82.68 297.053 82.44 296.733 82.04C296.493 82.36 296.253 82.6 296.253 82.76C295.613 100.36 297.613 117.8 299.693 135.24C299.773 134.44 299.853 133.56 299.773 132.76C299.373 127.48 298.973 122.12 298.653 116.84C298.013 106.12 297.293 95.48 297.373 84.68C297.373 84.12 297.373 83.48 297.293 82.92ZM301.213 82.36C301.133 95.64 302.013 108.52 303.453 121.32C303.453 119.88 303.533 118.44 303.453 117.08C303.213 110.04 302.893 103 302.573 95.96C302.413 92.28 302.253 88.6 302.013 84.92C302.013 84.12 302.173 83.24 301.213 82.36ZM298.253 145.48C298.253 145.16 298.253 144.84 298.253 144.52C298.173 144.52 298.013 144.52 297.933 144.52C298.013 144.84 298.013 145.16 298.093 145.48C298.093 145.48 298.173 145.48 298.253 145.48ZM349.159 90.36C349.639 88.76 350.199 87.08 351.319 85.8C351.799 85.88 352.279 85.96 352.679 85.96C353.079 85.4 353.559 84.76 354.119 84.04C354.679 84.44 355.079 84.76 355.639 85.16C355.799 84.84 355.879 84.52 356.119 84.28C356.759 83.4 357.559 83.32 358.279 84.04C358.919 84.84 359.479 85.64 359.479 86.76C359.319 91.08 359.239 95.4 359.159 99.64C359.159 101.4 359.159 103.08 359.319 104.84C360.199 102.76 360.119 100.52 360.279 98.36C360.519 96.04 360.519 93.72 360.759 91.48C360.919 89.24 360.039 87.08 360.759 84.6C361.799 85.8 361.959 87 361.959 88.12C362.119 91.48 362.439 94.84 362.119 98.2C361.559 104.2 361.319 110.2 360.839 116.2C360.519 120.76 359.879 125.4 359.559 129.96C359.319 133.48 359.239 137 359.399 140.52C359.559 142.52 360.119 144.6 360.759 146.52C361.159 147.72 361.959 148.84 362.839 149.72C364.519 151.72 366.519 151.96 368.839 150.84C370.599 149.96 371.879 148.6 373.079 147.08C375.159 144.44 376.839 141.48 378.199 138.44C383.159 127.48 386.999 116.12 389.239 104.28C389.879 101.24 389.879 98.12 390.199 95C390.439 92.52 390.839 90.12 390.999 87.64C391.159 85.16 393.079 84.44 394.759 83.72C395.959 83.08 397.799 84.28 398.039 85.72C398.439 88.52 398.759 91.32 399.079 94.2C399.879 102.68 399.639 111.16 399.719 119.64C399.719 121.8 399.719 123.96 399.799 126.12C399.799 130.36 399.879 134.68 399.879 139C399.879 143 399.799 147 399.799 151.08C399.799 151.64 399.799 152.28 399.879 152.84C400.119 154.2 400.279 155.48 398.919 156.44C398.519 156.68 398.439 157.32 398.119 157.96C397.479 157.72 396.999 157.48 396.439 157.24C395.879 157.4 396.119 158.68 394.999 158.28C394.599 158.12 393.959 158.52 393.319 158.76C391.239 144.84 390.119 130.84 389.639 116.52C388.599 116.92 388.599 117.72 388.439 118.28C387.319 121.64 386.359 125 385.239 128.28C383.559 133.24 381.559 137.96 378.999 142.44C377.399 145.32 375.479 147.96 373.079 150.2C370.599 152.44 367.719 153.8 364.279 153.96C361.079 154.12 358.439 152.92 356.039 150.84C353.079 148.28 351.319 144.84 349.879 141.24C347.799 136.2 347.399 130.92 346.839 125.64C346.279 120.2 346.199 114.84 346.439 109.4C346.519 106.12 347.079 102.92 347.239 99.64C347.399 96.44 348.359 93.4 349.159 90.36ZM349.719 108.52C349.959 102.52 350.759 96.6 351.399 90.52C351.319 90.76 351.159 91 351.079 91.24C349.879 95.16 349.239 99.24 349.079 103.32C348.839 107.8 348.839 112.28 348.759 116.76C348.599 122.92 349.079 129.08 349.879 135.16C350.439 139.24 351.639 143.08 353.719 146.6C353.879 146.92 354.279 147.24 354.599 147.48C354.599 146.68 354.279 146.12 354.039 145.48C353.159 143 352.199 140.52 351.399 137.96C349.719 132.52 349.719 126.76 349.399 121.16C349.079 116.92 349.559 112.76 349.719 108.52ZM355.559 88.76C355.639 88.28 355.479 87.8 355.479 87.24C353.399 93.32 352.279 106.36 352.759 112.6C353.719 104.36 354.679 96.52 355.559 88.76ZM352.999 134.12C352.759 138.36 354.199 143.8 356.439 146.52C355.239 142.12 354.119 138.12 352.999 134.12ZM397.559 93.88C397.559 92.44 397.559 91 397.559 89.56C397.479 89.56 397.479 89.48 397.399 89.48C397.399 89.48 397.319 89.56 397.319 89.64C397.239 91.08 397.239 92.52 397.239 93.88C397.399 93.88 397.479 93.88 397.559 93.88ZM359.559 145.64C359.319 145 359.159 144.52 358.919 143.96C358.759 144.76 358.519 145.48 359.559 145.64ZM421.996 144.2C421.676 141.8 421.276 139.4 420.956 137C420.716 133.4 420.556 129.8 420.316 126.2C420.076 122.68 419.676 119.16 419.516 115.64C419.276 105.88 419.116 96.12 418.876 86.28C418.796 84.44 418.716 82.52 419.036 80.6C419.116 80.84 419.276 81.08 419.276 81.32C419.596 86.12 419.996 90.92 420.236 95.72C420.476 102.28 420.636 108.92 420.876 115.48C421.036 118.52 421.276 121.48 421.516 124.52C421.596 125.32 421.756 126.12 421.916 127.08C425.436 126.04 428.796 125.08 432.316 124.04C432.476 123.32 432.796 122.52 432.876 121.72C433.756 115.08 434.556 108.44 435.516 101.8C436.156 97.64 437.036 93.48 438.636 89.56C439.356 87.64 440.236 85.8 441.356 84.04C442.956 81.4 445.276 79.48 448.236 78.52C452.316 77.16 455.916 78.36 458.956 81.16C462.236 84.28 463.676 88.2 464.076 92.6C464.716 98.2 463.276 103.4 460.396 108.12C455.356 116.2 448.476 122.28 439.756 126.2C438.316 126.84 436.876 127.24 435.356 127.8C434.956 130.84 434.636 133.8 434.156 136.76C433.516 141.16 432.876 145.48 432.076 149.72C431.756 151.64 431.036 153.56 430.316 155.4C429.596 157 428.476 158.2 426.636 158.68C423.916 159.4 421.756 158.68 420.236 156.52C419.036 154.76 417.916 152.84 417.116 150.92C415.676 147.4 414.476 143.88 413.276 140.28C411.356 134.04 409.996 127.64 409.196 121.16C408.396 114.6 407.836 107.96 408.236 101.4C408.636 95.56 409.516 89.8 411.516 84.2C412.476 81.48 414.156 79.96 417.116 79.56C417.356 80.04 417.756 80.52 417.836 81C417.996 81.8 417.916 82.6 417.996 83.32C418.076 91.8 417.996 100.36 418.316 108.84C418.556 116.76 419.116 124.6 420.236 132.44C420.396 133.24 420.316 133.96 420.396 134.76C420.556 135.48 420.796 136.2 420.956 136.92C420.796 139.4 421.036 141.8 422.076 144.12C422.076 144.84 422.076 145.48 422.076 146.12C422.236 146.12 422.316 146.12 422.476 146.04C422.316 145.48 422.156 144.84 421.996 144.2ZM417.356 141.56C418.076 144.76 418.716 148.04 420.236 151.08C420.316 151.8 420.396 152.52 421.516 153.08C421.116 152.12 420.876 151.48 420.556 150.76C420.076 148.6 419.516 146.44 418.956 144.28C416.876 135 415.436 125.56 414.716 116.04C414.156 107.64 414.076 99.24 414.716 90.84C414.876 88.76 414.956 86.68 415.116 84.6C414.636 85.4 414.316 86.2 414.236 87.08C413.516 92.28 413.036 97.48 413.036 102.68C412.956 115.8 414.476 128.76 417.356 141.56ZM436.316 117.72C436.076 119.4 435.996 121.08 435.836 123.4C437.516 122.6 438.636 122.28 439.596 121.64C447.676 116.2 453.516 109.24 455.836 99.56C456.636 96.28 456.796 92.92 456.076 89.64C455.516 87.24 454.636 85.08 452.876 83.24C449.996 80.28 447.836 80.28 445.116 83.48C443.436 85.56 442.236 87.88 441.436 90.44C440.476 93.48 439.516 96.52 438.956 99.64C437.916 105.64 437.116 111.64 436.316 117.72ZM431.596 128.52C428.396 128.6 425.436 129.24 422.156 129.8C422.076 130.44 421.996 130.92 421.996 131.32C422.316 137.56 423.036 143.8 423.996 149.96C424.316 151.64 424.956 153.24 425.516 154.84C425.596 155.24 426.076 155.56 426.476 156.04C428.236 154.04 428.476 151.72 428.956 149.48C429.436 147.24 429.836 144.92 430.236 142.68C430.556 140.28 431.036 137.88 431.196 135.48C431.356 133.24 432.236 131 431.596 128.52ZM411.116 103.4C411.116 99.24 411.436 95 411.676 90.84C411.516 90.84 411.356 90.84 411.196 90.76C411.116 91.08 410.956 91.4 410.956 91.72C410.636 95.24 410.156 98.76 409.996 102.2C409.836 107.08 409.996 111.88 410.476 116.68C411.276 126.44 413.196 136.04 416.076 145.4C416.716 147.4 417.516 149.4 418.316 151.4C418.396 151.8 418.796 152.12 419.036 152.52C417.996 148.36 416.716 144.36 415.676 140.36C414.716 136.36 413.756 132.28 413.116 128.28C412.396 124.12 411.916 119.96 411.596 115.72C411.276 111.64 411.116 107.48 411.116 103.4ZM457.596 89.4C457.356 87.72 456.796 86.12 455.276 84.84C455.836 86.36 456.476 87.96 457.036 89.56C457.116 89.64 457.196 89.64 457.276 89.64C457.356 89.64 457.356 89.56 457.596 89.4ZM459.356 90.6C459.516 88.28 459.436 87.96 458.076 86.44C458.236 87.32 458.396 87.88 458.556 88.44C458.716 89 458.956 89.64 459.356 90.6ZM497.928 150.12C497.448 147.48 497.048 144.92 496.568 142.28C496.728 147.4 496.888 152.44 498.408 157.32C499.208 159.88 499.848 162.44 501.688 164.52C501.768 164.68 501.768 165 501.848 165.56C501.368 165.4 500.968 165.4 500.648 165.24C499.608 164.6 498.888 163.64 498.328 162.52C496.008 157.32 494.408 151.88 494.408 146.12C494.328 136.68 494.168 127.24 494.408 117.8C494.568 110.76 496.168 103.8 497.928 97C499.048 92.68 500.568 88.52 502.648 84.52C503.608 82.68 504.808 81 506.408 79.56C510.088 76.28 513.608 76.76 516.328 80.92C517.768 83.24 518.568 85.72 519.288 88.28C520.728 93.8 521.528 99.4 522.328 105C522.968 109.16 523.448 113.32 524.008 117.48C524.088 118.12 524.408 118.76 524.648 119.56C525.528 119.08 525.528 118.28 525.688 117.56C526.808 113.56 527.768 109.4 528.888 105.4C530.408 99.8 532.168 94.36 534.568 89.08C535.688 86.6 536.968 84.2 538.408 81.8C539.368 80.2 540.648 78.76 542.248 77.72C544.888 76.04 548.088 76.6 550.088 79.08C551.848 81.32 552.888 83.96 553.768 86.6C555.288 91.16 556.248 95.72 556.968 100.44C558.648 110.52 559.128 120.68 558.968 130.92C558.888 134.76 559.048 138.52 558.888 142.28C558.488 149.16 558.328 155.96 557.288 162.84C556.968 164.52 555.768 165.64 555.048 167.16C554.568 167.08 554.008 167 553.288 166.92C552.808 168.44 550.968 167.4 550.008 169C549.688 167.48 549.448 166.52 549.288 165.48C548.648 161 547.928 156.52 547.368 152.04C546.808 147.96 546.408 143.8 546.008 139.72C545.688 137.32 545.528 134.92 545.368 132.6C544.888 126.2 544.408 119.88 544.088 113.56C543.848 108.28 543.848 103.08 543.848 97.8C543.768 93 543.848 88.2 543.768 83.4C543.768 82.36 543.688 81.4 543.048 80.44C541.928 80.6 541.448 81.48 541.048 82.28C539.608 84.92 538.088 87.48 536.888 90.28C533.848 97.24 532.008 104.52 530.088 111.88C529.368 114.76 528.728 117.72 528.008 120.6C527.688 121.72 527.368 122.76 526.968 123.8C526.168 126.04 525.208 126.52 522.648 126.04C520.888 121.48 520.088 117.96 519.528 113.56C518.808 107.88 517.928 102.2 517.128 96.52C517.048 95.96 516.888 95.32 517.048 94.76C517.288 93.8 516.808 93.08 516.568 92.2C516.328 91.48 517.048 90.52 516.088 89.88C516.648 87.96 515.288 86.52 514.728 84.92C514.088 83.16 512.968 81.56 511.528 80.28C510.568 79.48 509.768 79.48 509.128 80.6C508.328 82.04 507.528 83.56 506.968 85.24C505.928 88.6 505.608 92.12 505.448 95.64C505.288 99.8 505.208 104.04 505.448 108.28C505.688 113.64 506.248 119 506.728 124.44C507.128 129.32 507.528 134.2 508.008 139C508.408 143.08 508.888 147.08 509.288 151.08C509.608 154.12 509.768 157.24 509.928 160.36C509.928 161.16 509.848 162.12 509.368 162.76C508.728 163.64 507.848 164.52 506.888 164.92C505.928 165.32 504.728 165.24 503.688 165.24C503.368 165.24 502.888 164.76 502.728 164.44C502.248 163.72 501.848 163 501.528 162.2C499.848 158.28 498.728 154.28 497.928 150.12ZM548.088 89.4C548.328 90.76 548.568 92.2 548.888 93.56C548.888 94.68 548.888 95.8 548.888 96.92C549.048 96.92 549.128 96.92 549.288 96.92C549.128 95.8 548.968 94.76 548.808 93.64C548.808 92.84 548.808 92.12 548.808 91.32C548.568 88.12 548.248 84.92 547.288 81.8C547.208 81.32 546.808 80.92 546.488 80.52C546.888 83.56 547.448 86.44 548.088 89.4ZM504.888 163C502.408 155.8 501.288 148.68 499.928 141.48C499.928 141.88 499.848 142.36 499.928 142.76C500.488 147.08 500.968 151.4 501.608 155.72C501.848 157.48 502.408 159.24 502.888 160.92C503.128 161.64 503.288 162.6 504.888 163ZM555.288 102.76C555.288 97.08 553.048 86.36 550.808 82.92C550.968 83.56 555.288 102.76 555.288 102.76ZM545.368 85.8C545.528 83.96 545.528 82.12 544.328 80.52C544.648 82.28 544.968 84.04 545.368 85.8ZM611.784 86.12C611.704 85.72 611.384 85.4 611.064 84.84C609.624 85.88 608.984 87.08 608.344 88.28C606.184 92.04 604.664 96.04 603.064 100.04C600.904 105.24 598.904 110.52 596.584 115.72C595.624 118.12 594.264 120.28 592.824 122.52C591.624 124.36 589.944 126.04 587.784 126.6C584.344 127.56 580.984 127.56 577.864 125.48C574.504 123.32 572.344 120.12 570.664 116.6C568.824 112.92 567.944 109 567.464 105C567.144 102.44 566.984 99.88 566.984 97.32C566.824 93.16 567.864 89.08 569.144 85.24C569.624 83.96 570.424 82.76 571.144 81.64C572.024 80.2 573.304 79.48 574.984 79.32C575.624 79.24 576.264 79.16 577.064 79C577.384 79.56 577.624 80.04 577.944 80.52C578.264 80.52 578.664 80.44 579.224 80.36C579.144 81 579.064 81.64 578.984 82.2C578.504 85.08 578.504 87.96 578.744 90.92C578.984 94.28 578.984 97.72 579.144 101.16C579.224 105.72 579.544 110.28 580.504 114.76C580.904 116.68 581.784 118.44 582.424 120.36C582.504 120.68 582.664 120.92 582.904 121.24C585.544 124.84 586.584 124.04 588.664 121.64C590.664 119.24 592.184 116.52 593.464 113.72C596.024 108.2 598.424 102.6 600.904 97C602.344 93.72 603.864 90.44 605.464 87.24C606.024 85.96 606.824 84.76 607.624 83.72C610.424 80.44 614.424 80.12 617.704 82.84C618.984 83.96 619.944 85.24 620.664 86.68C622.824 90.84 624.504 95.16 625.144 99.8C626.104 106.28 626.904 112.76 626.584 119.32C626.344 124.68 625.784 130.04 625.064 135.4C624.344 140.6 623.064 145.72 621.624 150.76C620.504 154.44 619.064 158.04 617.544 161.56C616.344 164.28 614.984 167 613.384 169.56C611.384 172.84 608.904 175.8 605.864 178.28C603.224 180.52 600.264 181.8 596.904 182.52C594.584 183.08 592.344 182.84 590.744 180.92C589.704 179.64 588.824 178.12 588.504 176.44C587.784 173.16 588.184 169.88 588.904 166.68C589.864 161.8 591.544 157.08 593.624 152.6C597.704 143.72 601.864 134.84 606.024 125.96C608.664 120.36 611.384 114.84 614.104 109.24C614.904 107.56 615.224 105.96 614.984 104.04C614.504 100.68 614.184 97.24 613.784 93.8C613.464 91.16 612.824 88.6 611.784 86.12ZM615.384 114.76C615.384 114.44 615.224 114.12 615.064 113.64C614.184 114.36 614.024 115.16 613.624 115.88C610.424 123 607.144 130.12 603.864 137.24C601.064 143.4 598.344 149.56 595.624 155.8C593.944 159.8 592.744 164.04 592.104 168.36C591.624 171 591.784 173.64 592.504 176.28C592.584 176.68 592.984 177.16 593.304 177.48C595.704 179.72 598.024 179.96 600.744 178.2C602.424 177.08 603.784 175.64 604.904 173.96C606.984 170.84 608.664 167.4 609.784 163.8C611.464 158.68 612.824 153.48 613.464 148.04C614.024 142.68 614.904 137.32 615.224 131.96C615.544 126.2 615.304 120.44 615.384 114.76ZM571.144 84.44C566.824 93.24 568.584 113 574.184 119.56C569.544 108.04 568.984 96.68 571.144 84.44ZM574.824 114.68C572.824 104.44 572.424 94.52 573.784 84.2C572.184 86.76 571.624 90.2 571.704 97.48C571.784 105.08 572.904 111.72 574.824 114.68ZM577.384 83.48C575.704 89.32 576.664 109.56 579.064 114.44C578.744 111.88 578.424 109.4 578.184 106.84C577.944 104.28 577.784 101.72 577.704 99.16C577.624 96.6 577.624 93.96 577.464 91.4C577.384 88.92 577.864 86.36 577.384 83.48ZM620.104 109C620.184 102.44 619.704 96.04 616.824 90.12C617.384 93.32 618.024 96.44 618.584 99.64C619.144 102.76 619.144 105.96 620.104 109ZM613.064 85.8C615.304 91.8 615.384 98.2 616.824 104.28C617.384 101.8 616.344 93.56 615.064 89.72C614.664 88.28 614.264 86.92 613.064 85.8ZM623.864 99.48C623.704 98.12 623.624 96.6 622.584 95.32C622.424 97.16 623.304 102.6 624.264 106.12C624.984 103.72 624.104 101.56 623.864 99.48ZM617.544 111.08C617.544 110.68 617.544 110.28 617.544 109.88C617.464 109.88 617.384 109.88 617.224 109.8C617.304 110.28 617.304 110.68 617.304 111.08C617.384 111.08 617.464 111.08 617.544 111.08ZM705.024 154.44C705.264 154.6 705.584 154.6 706.064 154.68C706.544 152.68 706.304 150.84 706.144 149C705.504 141.56 704.784 134.12 704.224 126.68C703.904 122.6 703.664 118.6 703.424 114.6C703.344 112.92 703.344 111.32 703.424 109.72C703.664 101.32 704.304 93.08 706.864 85.08C707.904 81.8 709.264 78.6 710.544 75.4C710.864 74.68 711.584 74.12 712.224 73.56C712.704 73.08 713.344 73.24 713.984 73.96C713.824 74.68 713.664 75.64 713.424 76.52C712.624 79.4 711.744 82.28 711.104 85.16C709.664 91.88 709.744 98.68 710.944 105.4C711.744 109.96 712.784 114.52 713.584 119.08C714.304 123.56 715.184 128.04 715.584 132.52C716.064 137.64 716.304 142.84 715.264 147.96C714.864 149.72 714.384 151.4 713.744 153.08C712.304 156.76 709.344 158.44 705.664 158.92C705.264 159 704.784 158.92 704.384 158.76C703.984 158.6 703.584 158.36 703.264 158.12C700.544 155.8 697.824 153.4 696.304 150.04C695.504 148.2 694.304 146.44 693.504 144.6C692.544 142.04 691.664 139.4 690.864 136.84C688.784 129.4 687.584 121.72 686.224 114.12C685.824 111.88 685.424 109.56 685.104 107.24C684.944 105.96 684.944 104.52 684.784 103.24C684.704 102.44 684.224 101.72 684.224 101C684.144 100.2 684.704 99.4 683.664 98.76C683.504 98.68 683.744 97.96 683.744 97.56C683.744 96.36 683.584 95.4 682.864 94.36C681.984 93.08 681.904 91.24 681.504 89.72C680.944 87.72 680.304 85.8 678.624 84.28C678.224 84.68 677.824 85 677.664 85.4C677.344 86.2 677.024 87.08 676.864 87.88C676.384 90.84 675.824 93.8 675.584 96.76C675.104 102.68 675.024 108.6 675.504 114.52C675.824 119.32 675.904 124.12 676.224 128.92C676.384 131.72 676.704 134.44 676.784 137.16C677.024 141.08 677.184 145.08 677.344 149C677.344 150.12 677.424 151.24 677.424 152.36C677.584 154.92 677.264 157.48 676.784 159.96C676.384 161.8 675.104 162.92 673.344 163.8C672.944 163.08 672.544 162.6 672.384 161.96C671.904 160.36 671.504 158.76 671.264 157.16C670.704 154.2 670.384 151.24 669.904 148.28C669.744 147.32 669.584 146.44 669.264 145.56C669.104 148.6 669.744 151.56 670.144 154.6C670.544 157.64 671.264 160.6 671.824 163.64C671.184 164.12 670.704 163.8 670.544 163.32C669.824 161.56 669.024 159.8 668.624 158.04C667.664 154.04 666.864 149.96 666.064 145.96C665.744 144.52 665.504 143.16 665.104 141.72C664.784 144.36 665.264 146.84 665.744 149.32C666.224 151.8 666.544 154.28 667.104 156.68C667.744 159.16 668.624 161.48 669.424 163.96C668.544 164.12 668.144 163.48 667.744 162.92C666.464 161.08 665.664 158.92 665.184 156.84C664.224 153.08 663.424 149.24 662.864 145.48C662.384 142.52 662.144 139.48 661.984 136.52C661.904 133.8 661.984 131 661.984 128.28C662.144 121.56 663.264 114.92 664.624 108.36C665.584 103.88 666.784 99.4 668.224 95C669.264 91.72 670.544 88.52 672.224 85.56C673.264 83.8 674.544 82.28 676.304 81.24C679.024 79.64 681.264 80.2 682.784 83C683.664 84.52 684.384 86.2 684.864 87.96C686.064 92.2 687.104 96.52 687.984 100.92C689.824 110.44 691.424 119.96 693.184 129.48C694.144 134.36 695.424 139.16 697.264 143.8C698.464 147 699.984 149.96 702.384 152.36C703.184 153.16 704.064 153.8 705.024 154.44ZM668.944 142.04C668.944 141.8 668.864 141.56 668.784 140.92C668.704 141.56 668.704 141.72 668.704 141.96C668.704 142.12 668.784 142.28 668.864 142.52C668.944 142.36 668.944 142.2 668.944 142.04ZM735.374 83.24C735.614 82.12 735.694 80.92 735.854 79.24C733.614 79.72 731.694 79.88 729.934 80.44C727.694 81.08 725.934 80.44 724.094 78.84C724.654 78.52 725.134 78.04 725.614 77.96C728.654 77.4 731.694 76.84 734.814 76.44C736.014 76.28 737.054 76.04 737.774 74.84C738.254 73.88 738.414 73.96 740.894 73C741.054 73.72 741.214 74.44 741.454 75.64C741.934 74.28 742.254 73.32 742.654 72.28C743.214 72.52 744.014 72.6 744.094 72.84C744.654 74.2 746.094 73.72 746.894 74.6C747.294 74.92 748.174 74.84 748.894 74.76C751.214 74.6 753.454 74.28 755.774 74.04C756.814 73.96 757.854 73.88 758.814 73.96C759.534 74.04 759.854 74.52 759.534 75.4C755.694 76.52 751.614 76.44 747.694 77.48C747.614 77.8 747.374 78.12 747.454 78.44C748.174 86.6 747.694 94.76 747.374 102.92C747.054 112.44 746.894 121.96 746.734 131.48C746.574 140.04 746.414 148.6 746.254 157.24C746.254 158.12 746.334 159.08 746.414 160.2C747.214 160.12 747.774 160.12 748.334 159.96C751.134 159.32 753.934 158.52 756.814 157.8C757.374 157.64 758.014 157.48 758.574 157.56C758.974 157.56 759.454 158.04 759.614 158.36C759.694 158.52 759.294 159.16 759.054 159.32C758.414 159.64 757.774 159.88 757.134 160.04C754.334 160.92 751.534 161.72 748.734 162.6C748.014 162.84 746.814 163 746.654 163.48C746.254 164.6 744.894 164.68 744.654 165.8C744.574 166.12 744.254 166.36 743.934 166.76C743.454 166.36 742.974 166.04 742.494 165.64C742.094 165.96 741.614 166.68 741.294 166.6C740.654 166.44 740.174 166.6 739.454 167.24C739.134 166.76 738.894 166.28 738.574 165.72C736.734 166.2 735.134 166.6 733.454 167.08C731.694 167.56 729.934 167.48 728.094 167.24C727.454 167.16 726.894 166.84 726.094 166.52C727.214 164.92 728.654 164.68 730.174 164.52C732.974 164.28 735.534 163.48 738.334 162.6C738.254 161.08 738.254 159.72 738.094 158.44C737.534 153.72 736.974 149 736.494 144.36C736.094 141 735.854 137.64 735.614 134.36C735.134 128.28 734.654 122.2 734.254 116.12C734.094 114.04 734.174 111.96 734.094 109.96C733.774 103.64 733.934 97.4 734.254 91.16C734.414 88.52 735.054 85.88 735.374 83.24ZM738.494 81.56C738.574 80.92 738.574 80.2 738.574 79.56C738.414 79.56 738.174 79.48 737.934 79.48C737.774 80.2 737.534 80.92 737.454 81.64C736.014 89.64 735.774 97.64 735.934 105.72C736.094 111.24 736.414 116.68 736.654 122.2C736.654 122.6 736.734 123 736.734 123.4C737.054 122.52 737.054 121.72 736.974 120.84C736.974 114.76 736.814 108.68 736.894 102.6C736.974 95.56 737.454 88.52 738.494 81.56ZM740.734 79.24C739.214 91 739.054 102.84 740.014 114.68C740.014 113.88 740.014 113.16 740.014 112.36C740.094 103.8 740.334 95.24 741.214 86.68C741.454 84.52 741.614 82.36 741.774 80.28C741.774 79.72 741.534 79.24 741.374 78.44C740.974 78.92 740.734 79 740.734 79.24ZM745.534 78.2C745.054 81.4 745.054 96.76 745.774 98.84C746.014 94.76 746.254 90.76 746.414 86.68C746.494 84.36 746.254 82.04 746.174 79.72C746.094 79.32 745.854 78.92 745.534 78.2ZM737.134 127.4C737.134 127.72 737.134 128.04 737.134 128.28C737.294 128.28 737.374 128.28 737.454 128.28C737.454 127.96 737.374 127.64 737.374 127.4C737.294 127.4 737.214 127.4 737.134 127.4ZM802.723 96.2C802.883 97.16 803.043 98.12 803.203 99.08C802.963 99.48 802.803 99.96 802.483 100.36C802.323 100.6 801.843 100.6 801.603 100.6C800.483 100.44 799.843 99.8 799.763 98.68C799.763 97.56 799.843 96.28 799.843 95.08C799.923 94.44 799.843 93.72 800.083 93.08C800.323 92.12 799.203 92.44 799.123 91.8C799.123 91.16 798.883 90.6 798.723 90.04C798.083 87.64 796.963 85.56 795.203 83.8C793.363 81.88 792.163 81.8 790.163 83.56C788.083 85.48 786.563 87.88 785.203 90.36C780.803 98.52 778.163 107.16 776.323 116.12C775.363 120.84 774.483 125.56 773.843 130.28C773.443 133.88 773.363 137.48 773.283 141.08C773.283 142.6 773.683 144.12 774.003 145.64C774.323 147.32 775.123 148.68 776.323 149.96C778.323 152.2 780.723 152.84 783.443 151.4C785.043 150.6 786.563 149.48 787.843 148.28C791.283 145 793.923 141.08 796.163 136.92C796.563 136.2 796.803 135.48 796.963 134.68C797.363 132.36 797.763 129.96 798.083 127.72C797.363 126.92 796.563 127.32 795.843 127.48C793.043 127.96 790.243 128.44 787.363 128.2C786.003 128.12 786.003 128.12 784.483 127.16C785.043 125.88 786.243 125.48 787.363 125.48C790.483 125.48 793.443 124.68 796.563 124.36C798.163 124.12 799.683 123.72 800.803 122.28C801.523 121.48 802.563 121 803.443 120.36C804.323 120.52 805.043 120.68 805.923 120.84C806.563 122.52 807.123 124.2 806.803 126.2C806.563 127.72 806.803 129.32 806.803 130.84C806.803 137.72 806.723 144.6 806.803 151.4C806.803 156.52 805.923 161.48 805.603 166.6C805.523 167.48 805.363 168.36 804.323 168.92C803.843 169.24 803.603 170.04 803.123 170.76C802.483 170.36 802.003 170.04 801.443 169.64C800.963 170.28 800.643 171.16 799.523 170.6C799.363 170.52 798.883 170.92 798.483 171.16C797.683 170.76 797.843 170.04 797.763 169.4C796.483 161.48 796.163 153.48 796.243 145.48C796.243 144.6 796.163 143.64 796.163 142.28C795.443 142.84 794.963 143.08 794.723 143.48C793.283 145.16 792.003 147 790.403 148.6C788.883 150.12 787.283 151.56 785.443 152.6C780.963 155.24 776.323 155.56 771.603 153.24C768.723 151.8 766.563 149.48 764.883 146.68C762.963 143.24 762.003 139.4 761.523 135.4C760.643 127.88 761.443 120.52 763.283 113.24C765.283 105.16 768.243 97.48 773.043 90.68C775.843 86.76 778.883 83.24 783.123 80.92C784.963 79.88 786.883 79.08 788.883 78.68C794.083 77.56 798.563 79.64 800.963 84.36C802.243 86.84 803.043 89.4 803.123 92.2C803.123 92.92 803.283 93.56 803.363 94.28C803.603 95.88 803.763 97.48 803.123 99.08C803.283 98.12 803.443 97.08 802.723 96.2ZM763.923 135.16C763.443 140.6 765.283 146.2 768.403 148.68C767.683 147.24 766.963 145.8 766.323 144.28C765.763 142.76 765.363 141.16 764.883 139.64C764.483 138.2 764.243 136.68 763.923 135.16ZM766.963 137.32C766.963 140.84 767.283 144.28 769.843 147.16C768.883 143.88 767.923 140.6 766.963 137.32ZM773.283 146.52C772.963 145.48 772.643 144.36 772.323 143.24C772.083 144.52 772.003 145.72 773.283 146.52ZM855.593 121.4C855.513 120.76 855.353 120.12 855.113 119C854.233 119.8 853.833 120.12 853.433 120.6C849.193 125.32 844.553 129.72 839.753 133.88C837.833 135.48 836.713 137.32 836.233 139.88C835.033 145.32 833.513 150.68 830.553 155.56C829.513 157.24 828.313 158.84 826.713 160.04C824.313 161.96 821.513 162.68 818.473 161.88C815.513 161.08 814.073 157.96 815.433 155.16C815.993 153.96 816.793 152.76 817.673 151.8C819.833 149.4 821.993 147 824.393 145C826.233 143.4 826.873 141.56 826.713 139.32C826.553 136.28 826.553 133.16 826.313 130.04C825.753 124.52 825.113 119 824.553 113.48C823.993 108.2 823.353 103.08 822.953 97.8C822.633 94.04 822.793 90.28 822.633 86.52C822.553 85.16 822.313 83.8 822.313 82.44C822.313 81.56 822.393 80.6 823.753 81C823.913 81.08 824.393 80.76 824.473 80.52C824.873 79.8 825.513 79.8 826.153 79.56C828.713 78.52 830.793 79.8 832.873 80.92C833.753 81.4 834.473 82.36 834.793 83.32C835.753 85.88 836.633 88.44 837.353 91.08C838.633 96.2 838.793 101.4 839.113 106.68C839.513 111.72 839.113 116.76 838.953 121.88C838.873 124.76 838.393 127.64 838.073 130.52C838.073 131.08 838.073 131.56 838.073 132.28C838.713 131.96 839.193 131.72 839.593 131.4C844.793 126.76 849.673 121.88 854.153 116.52C855.193 115.24 855.593 113.96 855.673 112.28C855.753 106.52 855.913 100.76 856.313 95.08C856.713 89.88 857.593 84.68 859.193 79.64C859.673 78.28 860.233 76.92 860.953 75.64C862.233 73.24 864.313 71.8 866.873 71C869.113 70.36 870.953 71.16 871.913 73.32C873.513 76.52 873.833 79.96 873.273 83.4C872.793 86.36 872.073 89.24 871.193 92.12C870.313 94.68 869.673 97.24 870.073 99.88C870.553 103.56 869.993 107.08 869.913 110.68C869.753 117.96 869.433 125.16 869.273 132.36C868.953 143.24 867.673 154.04 866.153 164.84C865.913 166.84 864.713 167.96 863.433 169.4C862.953 169.08 862.553 168.84 861.993 168.44C861.753 168.76 861.593 169.08 861.273 169.56C860.873 169.4 860.393 169.24 859.993 169.08C859.753 169.32 859.433 169.48 859.113 169.72C858.953 169.56 858.713 169.4 858.633 169.16C858.313 167.24 857.913 165.32 857.833 163.32C857.353 155.4 856.953 147.4 856.553 139.4C856.233 133.4 855.913 127.4 855.593 121.4ZM828.073 129.88C828.233 132.52 828.233 135.16 828.313 138.12C828.553 137.72 828.633 137.56 828.633 137.48C829.113 129.4 828.953 121.32 828.233 113.24C827.673 107.8 827.273 102.36 826.793 96.84C826.553 94.28 826.473 91.72 826.153 89.16C825.993 87.56 825.673 85.96 825.273 84.36C825.273 84.04 824.873 83.8 824.393 83.16C824.313 83.88 824.233 84.2 824.233 84.52C824.633 90.12 825.033 95.64 825.513 101.16C825.993 105.96 826.553 110.76 826.953 115.56C827.353 120.36 827.753 125.08 828.073 129.88ZM823.353 158.36C825.353 154.84 825.833 151 826.073 147C825.673 147.08 825.353 147.08 825.193 147.16C822.873 149.32 820.633 151.64 819.113 154.36C818.713 155 818.473 155.8 818.313 156.52C818.153 157.96 818.873 159.08 820.473 159.64C821.753 160.12 822.553 159.8 823.353 158.36ZM828.393 86.68C829.513 101.48 830.553 116.28 831.593 131.08C831.593 131.08 831.673 131.08 831.753 131.08C831.753 130.04 831.913 128.92 831.913 127.8C832.313 118.04 831.833 108.28 830.713 98.52C830.393 95.24 829.833 91.96 829.353 88.6C829.273 87.96 828.873 87.24 828.633 86.6C828.553 86.6 828.473 86.68 828.393 86.68ZM835.193 92.28C835.753 101.64 836.233 111.4 836.793 121.08C838.393 114.76 837.353 96.12 835.193 92.28ZM862.153 103.4C862.553 96.84 862.953 90.36 863.353 83.8C861.833 90.28 861.673 96.76 862.153 103.4ZM868.073 79.24C867.273 81.72 867.113 88.6 867.673 92.04C867.993 91.64 868.233 91.4 868.313 91.08C868.553 87.32 868.393 83.56 868.073 79.24ZM859.513 88.2C858.393 93.48 857.753 105.48 858.633 108.36C858.633 106.04 858.473 103.72 858.633 101.48C858.873 97.56 859.273 93.64 859.593 89.72C859.673 89.24 859.513 88.76 859.513 88.2ZM867.833 101.8C867.913 101.72 868.073 101.56 868.153 101.48C868.073 101.4 868.073 101.4 867.993 101.32C867.913 101.4 867.833 101.48 867.753 101.64C867.753 101.64 867.833 101.72 867.833 101.8ZM924.476 74.2C924.556 74.36 924.716 74.6 924.876 74.76C925.116 74.52 925.356 74.36 925.676 74.12C926.956 75.48 926.316 77.4 927.356 79.08C927.836 79.08 928.476 79.24 929.196 79.16C933.836 78.92 938.396 78.68 943.036 78.44C948.476 78.04 953.756 77.16 959.036 75.64C960.236 75.32 961.356 74.68 962.556 74.2C963.356 73.96 964.156 73.64 965.036 73.56C965.596 73.4 966.156 73.72 966.236 74.6C965.596 75.4 964.636 75.72 963.676 76.12C959.196 78.04 954.316 78.92 949.516 79.64C943.036 80.6 936.476 80.84 929.996 81.24C929.436 81.24 928.796 81.32 928.236 81.4C928.076 81.4 927.916 81.56 927.596 81.72C927.596 82.28 927.436 83 927.436 83.64C927.676 88.68 927.836 93.72 928.076 98.84C928.476 107.16 928.956 115.4 929.356 123.72C929.676 129.56 929.836 135.4 930.076 141.24C930.476 149.64 930.876 158.04 931.276 166.44C931.356 167.72 931.596 169 930.236 169.8C929.836 170.04 929.756 170.68 929.356 171.32C928.796 170.84 928.316 170.52 927.836 170.04C927.596 170.52 927.356 170.92 927.116 171.48C926.796 171.24 926.396 171 925.996 170.76C925.756 171 925.436 171.24 925.116 171.56C925.036 171.4 924.796 171.32 924.796 171.16C924.076 167.24 923.356 163.24 922.636 159.32C920.796 148.44 919.116 137.56 917.996 126.68C917.196 119.72 916.556 112.84 915.836 105.96C915.116 98.84 915.276 91.72 915.356 84.6C915.356 84.04 915.276 83.4 915.196 82.76C913.916 82.44 912.716 82.68 911.516 82.92C908.156 83.48 904.796 84.12 901.436 84.92C897.836 85.72 894.396 87.16 891.356 89.32C890.316 90.04 889.356 90.92 888.476 91.8C886.156 94.12 885.756 95.32 885.756 98.36C884.236 99 882.956 98.92 882.076 97.96C881.436 97.32 881.356 96.68 881.596 95.8C882.076 93.88 883.036 92.2 884.476 90.68C887.036 87.96 890.156 86.04 893.596 84.6C897.276 83.16 901.116 82.2 904.956 81.56C907.596 81.08 910.236 80.76 912.876 80.36C913.836 80.28 914.716 80.04 915.436 79.88C916.716 78.12 916.076 75.64 918.156 74.2C918.636 76.04 917.116 77.64 918.076 79.56C918.876 78.52 918.716 77.48 918.956 76.44C919.116 75.56 919.356 74.68 919.596 73.8C919.676 73.48 920.076 73.32 920.476 73C921.516 75.16 919.516 77.32 921.036 79.64C921.276 78.84 921.436 78.52 921.516 78.12C921.596 77.08 921.596 76.04 921.596 75.08C921.676 74.2 921.596 73.16 922.556 72.84C923.676 72.52 924.076 73.48 924.476 74.2ZM918.396 84.52C918.316 83.88 918.236 83.24 918.156 82.6C917.916 82.6 917.676 82.6 917.436 82.6C917.356 83.24 917.116 83.88 917.116 84.52C917.116 88.2 917.036 91.88 917.116 95.56C917.276 100.12 917.436 104.68 917.836 109.16C918.956 119.64 920.236 130.12 921.436 140.6C921.436 140.92 921.516 141.16 921.596 141.48C921.836 140.52 921.756 139.56 921.676 138.6C921.276 134.52 920.876 130.44 920.476 126.36C920.076 121.56 919.676 116.76 919.276 111.96C918.956 107.64 918.636 103.24 918.476 98.92C918.316 94.12 918.396 89.32 918.396 84.52ZM921.356 82.92C921.356 82.68 921.116 82.44 920.796 82.04C920.556 82.36 920.316 82.6 920.316 82.76C919.676 100.36 921.676 117.8 923.756 135.24C923.836 134.44 923.916 133.56 923.836 132.76C923.436 127.48 923.036 122.12 922.716 116.84C922.076 106.12 921.356 95.48 921.436 84.68C921.436 84.12 921.436 83.48 921.356 82.92ZM925.276 82.36C925.196 95.64 926.076 108.52 927.516 121.32C927.516 119.88 927.596 118.44 927.516 117.08C927.276 110.04 926.956 103 926.636 95.96C926.476 92.28 926.316 88.6 926.076 84.92C926.076 84.12 926.236 83.24 925.276 82.36ZM922.316 145.48C922.316 145.16 922.316 144.84 922.316 144.52C922.236 144.52 922.076 144.52 921.996 144.52C922.076 144.84 922.076 145.16 922.156 145.48C922.156 145.48 922.236 145.48 922.316 145.48ZM1018.42 119.08C1018.34 118.28 1018.02 117.56 1017.78 116.68C1017.14 116.6 1016.82 116.52 1016.5 116.52C1011.54 116.44 1006.66 116.44 1001.78 116.44C998.502 116.36 998.582 115.96 997.622 119.48C995.142 129.32 992.662 139.16 989.302 148.68C988.102 152.2 986.742 155.64 984.822 158.76C984.102 159.96 983.222 161 982.262 162.04C980.022 164.44 975.062 165.08 971.702 162.28C970.982 161.72 970.422 161.08 970.502 160.12C970.502 159.56 970.422 158.92 970.422 158.44C970.982 158.04 971.542 157.72 972.102 157.4C972.742 157.64 973.382 157.88 974.102 158.12C974.182 158.28 974.262 158.52 974.422 158.68C974.982 159.56 975.462 160.52 976.182 161.16C977.462 162.36 979.142 162.36 980.342 161.16C981.302 160.12 982.182 158.84 982.902 157.64C984.822 154.44 986.102 150.92 987.062 147.4C989.702 137.96 992.182 128.52 994.742 119.08C994.902 118.44 994.902 117.72 994.982 116.92C992.182 116.6 989.702 117.24 987.462 118.6C984.502 120.36 982.582 123.08 981.942 126.6C981.862 127 981.782 127.4 981.862 127.88C981.862 128.68 982.182 129.32 983.142 129.4C983.462 129.4 983.782 129.64 984.182 129.8C983.942 130.28 983.862 130.6 983.622 130.76C983.062 131.08 982.502 131.32 981.942 131.4C978.982 132.04 977.702 130.92 977.782 127.96C977.862 125.48 978.982 123.48 980.422 121.64C983.062 118.12 986.582 115.88 990.902 115.08C991.862 114.84 992.902 114.6 993.942 114.52C995.462 114.44 996.182 113.64 996.502 112.2C997.062 109.8 997.782 107.4 998.502 105C999.702 100.92 1001.06 96.84 1003.06 93C1003.94 91.24 1004.9 89.48 1006.1 87.96C1009.78 83.24 1015.06 83 1019.14 87.32C1021.86 90.04 1023.46 93.48 1024.74 97C1026.18 101 1027.46 105 1028.26 109.16C1029.3 114.2 1030.26 119.24 1031.14 124.28C1032.34 131.48 1033.38 138.68 1035.3 145.72C1035.78 147.24 1036.34 148.68 1037.06 150.04C1038.74 153.56 1041.62 155.72 1045.3 156.92C1046.74 157.4 1048.18 157.88 1049.62 158.36C1049.78 159.8 1049.3 160.44 1048.18 160.92C1047.06 161.32 1045.94 161.64 1044.74 161.4C1043.14 161 1041.46 160.92 1039.86 160.68C1037.94 160.44 1036.26 159.72 1034.66 158.6C1032.1 156.76 1030.02 154.6 1028.42 151.88C1025.7 147.4 1024.02 142.6 1022.58 137.64C1020.9 131.48 1019.54 125.32 1018.42 119.08ZM1012.02 90.6C1011.7 89.56 1011.3 88.44 1009.86 87.72C1009.14 88.52 1008.5 89.16 1008.02 89.96C1006.98 91.64 1006.02 93.32 1005.22 95.08C1002.82 100.52 1001.14 106.2 999.702 111.96C999.542 112.52 999.462 113.08 999.382 113.64C1002.42 114.52 1014.5 114.6 1017.14 113.72C1017.06 113.16 1017.14 112.6 1016.98 112.04C1016.02 107.4 1015.14 102.84 1014.1 98.28C1013.46 95.64 1012.74 93.16 1012.02 90.6ZM1017.22 105.08C1017.86 107.8 1018.26 110.52 1019.54 113.16C1019.54 112.44 1019.62 111.72 1019.46 111C1018.74 107.4 1018.1 103.72 1017.22 100.2C1016.5 97.32 1015.46 94.44 1014.5 91.56C1014.18 90.6 1013.78 89.56 1012.82 88.84C1013.46 91.56 1014.42 94.2 1015.14 96.84C1015.94 99.56 1016.5 102.36 1017.22 105.08ZM1017.3 92.52C1017.22 92.28 1016.98 92.12 1016.58 91.64C1018.18 98.12 1019.78 104.28 1021.38 110.44C1021.54 110.92 1021.62 111.48 1021.78 111.96C1021.86 112.2 1021.94 112.36 1022.1 112.6C1022.18 112.68 1022.26 112.68 1022.42 112.68C1022.5 112.52 1022.66 112.28 1022.58 112.04C1021.7 107.88 1020.9 103.64 1019.86 99.56C1019.3 97.16 1018.18 94.84 1017.3 92.52ZM1027.06 111.48C1026.26 105.48 1024.82 99.72 1022.18 94.28C1022.02 94.36 1021.94 94.36 1021.78 94.44C1022.34 96.44 1022.98 98.36 1023.54 100.28C1024.1 102.2 1024.66 104.12 1025.22 105.96C1025.86 107.8 1025.86 109.8 1027.06 111.48ZM1029.3 149.08C1027.94 146.36 1026.74 143.56 1025.46 140.76C1026.58 147 1031.22 156.12 1034.82 156.76C1032.42 154.36 1030.58 151.88 1029.3 149.08ZM1029.06 143.32C1029.78 147.96 1031.94 152.2 1034.9 154.44C1033.62 152.28 1032.66 150.68 1031.78 149C1030.82 147.24 1030.1 145.48 1029.06 143.32ZM1020.1 117.08C1020.18 119.16 1020.58 121.16 1021.3 123.16C1021.22 121.08 1021.06 119 1020.1 117.08ZM1022.74 116.52C1023.06 117.8 1023.38 119.16 1023.62 120.44C1023.78 120.44 1023.86 120.36 1024.02 120.36C1023.86 119.24 1023.7 118.2 1023.54 117.08C1023.46 116.84 1023.22 116.6 1023.06 116.28C1022.9 116.36 1022.82 116.44 1022.74 116.52ZM1088.31 154.44C1088.55 154.6 1088.87 154.6 1089.35 154.68C1089.83 152.68 1089.59 150.84 1089.43 149C1088.79 141.56 1088.07 134.12 1087.51 126.68C1087.19 122.6 1086.95 118.6 1086.71 114.6C1086.63 112.92 1086.63 111.32 1086.71 109.72C1086.95 101.32 1087.59 93.08 1090.15 85.08C1091.19 81.8 1092.55 78.6 1093.83 75.4C1094.15 74.68 1094.87 74.12 1095.51 73.56C1095.99 73.08 1096.63 73.24 1097.27 73.96C1097.11 74.68 1096.95 75.64 1096.71 76.52C1095.91 79.4 1095.03 82.28 1094.39 85.16C1092.95 91.88 1093.03 98.68 1094.23 105.4C1095.03 109.96 1096.07 114.52 1096.87 119.08C1097.59 123.56 1098.47 128.04 1098.87 132.52C1099.35 137.64 1099.59 142.84 1098.55 147.96C1098.15 149.72 1097.67 151.4 1097.03 153.08C1095.59 156.76 1092.63 158.44 1088.95 158.92C1088.55 159 1088.07 158.92 1087.67 158.76C1087.27 158.6 1086.87 158.36 1086.55 158.12C1083.83 155.8 1081.11 153.4 1079.59 150.04C1078.79 148.2 1077.59 146.44 1076.79 144.6C1075.83 142.04 1074.95 139.4 1074.15 136.84C1072.07 129.4 1070.87 121.72 1069.51 114.12C1069.11 111.88 1068.71 109.56 1068.39 107.24C1068.23 105.96 1068.23 104.52 1068.07 103.24C1067.99 102.44 1067.51 101.72 1067.51 101C1067.43 100.2 1067.99 99.4 1066.95 98.76C1066.79 98.68 1067.03 97.96 1067.03 97.56C1067.03 96.36 1066.87 95.4 1066.15 94.36C1065.27 93.08 1065.19 91.24 1064.79 89.72C1064.23 87.72 1063.59 85.8 1061.91 84.28C1061.51 84.68 1061.11 85 1060.95 85.4C1060.63 86.2 1060.31 87.08 1060.15 87.88C1059.67 90.84 1059.11 93.8 1058.87 96.76C1058.39 102.68 1058.31 108.6 1058.79 114.52C1059.11 119.32 1059.19 124.12 1059.51 128.92C1059.67 131.72 1059.99 134.44 1060.07 137.16C1060.31 141.08 1060.47 145.08 1060.63 149C1060.63 150.12 1060.71 151.24 1060.71 152.36C1060.87 154.92 1060.55 157.48 1060.07 159.96C1059.67 161.8 1058.39 162.92 1056.63 163.8C1056.23 163.08 1055.83 162.6 1055.67 161.96C1055.19 160.36 1054.79 158.76 1054.55 157.16C1053.99 154.2 1053.67 151.24 1053.19 148.28C1053.03 147.32 1052.87 146.44 1052.55 145.56C1052.39 148.6 1053.03 151.56 1053.43 154.6C1053.83 157.64 1054.55 160.6 1055.11 163.64C1054.47 164.12 1053.99 163.8 1053.83 163.32C1053.11 161.56 1052.31 159.8 1051.91 158.04C1050.95 154.04 1050.15 149.96 1049.35 145.96C1049.03 144.52 1048.79 143.16 1048.39 141.72C1048.07 144.36 1048.55 146.84 1049.03 149.32C1049.51 151.8 1049.83 154.28 1050.39 156.68C1051.03 159.16 1051.91 161.48 1052.71 163.96C1051.83 164.12 1051.43 163.48 1051.03 162.92C1049.75 161.08 1048.95 158.92 1048.47 156.84C1047.51 153.08 1046.71 149.24 1046.15 145.48C1045.67 142.52 1045.43 139.48 1045.27 136.52C1045.19 133.8 1045.27 131 1045.27 128.28C1045.43 121.56 1046.55 114.92 1047.91 108.36C1048.87 103.88 1050.07 99.4 1051.51 95C1052.55 91.72 1053.83 88.52 1055.51 85.56C1056.55 83.8 1057.83 82.28 1059.59 81.24C1062.31 79.64 1064.55 80.2 1066.07 83C1066.95 84.52 1067.67 86.2 1068.15 87.96C1069.35 92.2 1070.39 96.52 1071.27 100.92C1073.11 110.44 1074.71 119.96 1076.47 129.48C1077.43 134.36 1078.71 139.16 1080.55 143.8C1081.75 147 1083.27 149.96 1085.67 152.36C1086.47 153.16 1087.35 153.8 1088.31 154.44ZM1052.23 142.04C1052.23 141.8 1052.15 141.56 1052.07 140.92C1051.99 141.56 1051.99 141.72 1051.99 141.96C1051.99 142.12 1052.07 142.28 1052.15 142.52C1052.23 142.36 1052.23 142.2 1052.23 142.04ZM1131.22 157.08C1130.66 156.44 1130.26 155.64 1129.22 155.64C1128.58 155.08 1127.94 154.6 1127.14 153.96C1126.82 154.68 1126.58 155.24 1126.42 155.72C1125.94 157.72 1125.46 159.8 1124.9 161.72C1124.58 162.68 1124.18 163.64 1123.7 164.52C1122.58 166.44 1120.74 167.16 1118.74 167.32C1117.78 167.4 1116.98 167.16 1116.42 166.44C1115.46 165.4 1114.34 164.28 1113.78 163C1112.18 159.8 1111.06 156.36 1110.42 152.76C1109.54 147.88 1108.65 142.92 1108.34 137.96C1108.1 133.72 1107.86 129.4 1107.62 125.16C1107.54 122.2 1107.46 119.32 1107.38 116.36C1107.22 108.92 1107.38 101.48 1108.1 94.04C1108.42 91 1108.82 88.04 1109.22 85.08C1109.38 84.04 1109.78 83.08 1110.18 82.12C1110.9 80.44 1111.62 79.88 1113.78 79.16C1114.26 79 1114.66 78.52 1115.13 78.12C1116.18 78.52 1116.66 79.24 1116.74 80.28C1116.9 82.2 1117.06 84.04 1117.22 85.96C1117.3 86.92 1117.3 87.96 1117.54 88.92C1118.18 85.72 1117.78 82.52 1117.7 79.24C1118.5 80.28 1118.66 81.48 1118.82 82.76C1119.38 87.96 1119.22 93.24 1119.14 98.44C1119.14 103.96 1118.9 109.4 1118.66 114.92C1118.42 122.6 1118.18 130.36 1117.94 138.04C1117.86 141.08 1117.7 144.12 1117.86 147.08C1118.02 151.08 1118.34 155.16 1118.82 159.16C1118.98 160.76 1119.38 162.52 1120.66 164.04C1121.06 163.56 1121.46 163.24 1121.62 162.84C1122.1 161.4 1122.66 159.88 1122.98 158.44C1123.46 156.44 1123.78 154.36 1124.18 152.36C1124.34 151.32 1124.49 150.28 1123.93 149.32C1123.3 148.2 1123.62 147.08 1124.26 146.2C1125.06 145 1125.3 143.64 1125.38 142.28C1126.02 136.52 1126.66 130.68 1127.3 124.92C1128.42 115.24 1129.54 105.64 1132.02 96.2C1133.14 91.96 1134.5 87.8 1136.82 84.04C1138.34 81.48 1140.34 79.4 1142.74 77.64C1148.74 73.48 1156.02 74.44 1160.98 79.08C1165.46 83.4 1168.34 88.76 1170.34 94.6C1173.46 103.8 1174.66 113.4 1173.78 123C1172.82 133.88 1170.02 144.28 1164.18 153.72C1160.66 159.32 1156.1 163.72 1150.18 166.68C1147.38 168.12 1144.42 168.36 1141.46 167.4C1141.06 167.24 1140.66 167.08 1140.26 166.92C1136.58 164.76 1133.62 161.8 1131.3 158.2L1131.22 158.28C1131.62 158.36 1131.94 158.52 1132.74 158.76C1132.02 157.96 1131.62 157.56 1131.22 157.08ZM1160.34 149.08C1163.3 141.48 1164.26 133.64 1164.42 124.2C1164.66 121 1163.94 116.52 1163.38 111.96C1162.34 103.48 1160.1 95.32 1156.1 87.72C1154.58 84.68 1152.58 81.8 1149.54 79.96C1147.45 78.76 1145.46 78.84 1143.54 80.28C1141.86 81.56 1140.5 83.08 1139.46 84.84C1137.86 87.4 1136.66 90.2 1135.78 93.08C1134.02 98.52 1132.98 104.04 1132.1 109.64C1131.22 115.96 1130.42 122.2 1129.7 128.52C1128.98 134.28 1128.5 139.96 1127.94 145.72C1127.78 146.92 1128.02 147.88 1128.9 148.68C1130.5 150.28 1131.62 152.2 1133.3 153.64C1133.62 153.88 1133.86 154.12 1134.02 154.36C1134.9 156.28 1136.58 157.32 1138.1 158.52C1139.46 159.56 1140.82 160.68 1142.26 161.56C1146.02 163.64 1149.46 163.24 1152.74 160.52C1153.14 160.2 1153.54 159.8 1153.94 159.48C1156.98 156.52 1158.82 152.92 1160.34 149.08ZM1153.14 81.56C1156.34 84.92 1158.1 88.76 1160.18 92.52C1159.86 88.44 1156.02 82.36 1153.14 81.56ZM1162.74 91.96C1162.1 88.6 1160.82 85.48 1157.86 83.4C1159.54 86.28 1161.14 89.16 1162.74 91.96ZM1109.86 98.68C1110.18 95 1110.42 91.88 1110.66 88.76C1109.94 91.88 1109.38 95 1109.86 98.68ZM1113.22 84.92C1112.98 87.56 1112.82 90.28 1112.58 92.92C1112.74 93 1112.9 93 1113.06 93C1113.22 90.36 1113.46 87.64 1113.62 84.92C1113.46 84.92 1113.3 84.92 1113.22 84.92ZM1166.34 88.6C1165.54 86.44 1164.5 84.68 1162.82 83.24C1164.1 86.44 1164.9 87.64 1166.34 88.6ZM1250.93 96.2C1251.09 97.16 1251.25 98.12 1251.41 99.08C1251.17 99.48 1251.01 99.96 1250.69 100.36C1250.53 100.6 1250.05 100.6 1249.81 100.6C1248.69 100.44 1248.05 99.8 1247.97 98.68C1247.97 97.56 1248.05 96.28 1248.05 95.08C1248.13 94.44 1248.05 93.72 1248.29 93.08C1248.53 92.12 1247.41 92.44 1247.33 91.8C1247.33 91.16 1247.09 90.6 1246.93 90.04C1246.29 87.64 1245.17 85.56 1243.41 83.8C1241.57 81.88 1240.37 81.8 1238.37 83.56C1236.29 85.48 1234.77 87.88 1233.41 90.36C1229.01 98.52 1226.37 107.16 1224.53 116.12C1223.57 120.84 1222.69 125.56 1222.05 130.28C1221.65 133.88 1221.57 137.48 1221.49 141.08C1221.49 142.6 1221.89 144.12 1222.21 145.64C1222.53 147.32 1223.33 148.68 1224.53 149.96C1226.53 152.2 1228.93 152.84 1231.65 151.4C1233.25 150.6 1234.77 149.48 1236.05 148.28C1239.49 145 1242.13 141.08 1244.37 136.92C1244.77 136.2 1245.01 135.48 1245.17 134.68C1245.57 132.36 1245.97 129.96 1246.29 127.72C1245.57 126.92 1244.77 127.32 1244.05 127.48C1241.25 127.96 1238.45 128.44 1235.57 128.2C1234.21 128.12 1234.21 128.12 1232.69 127.16C1233.25 125.88 1234.45 125.48 1235.57 125.48C1238.69 125.48 1241.65 124.68 1244.77 124.36C1246.37 124.12 1247.89 123.72 1249.01 122.28C1249.73 121.48 1250.77 121 1251.65 120.36C1252.53 120.52 1253.25 120.68 1254.13 120.84C1254.77 122.52 1255.33 124.2 1255.01 126.2C1254.77 127.72 1255.01 129.32 1255.01 130.84C1255.01 137.72 1254.93 144.6 1255.01 151.4C1255.01 156.52 1254.13 161.48 1253.81 166.6C1253.73 167.48 1253.57 168.36 1252.53 168.92C1252.05 169.24 1251.81 170.04 1251.33 170.76C1250.69 170.36 1250.21 170.04 1249.65 169.64C1249.17 170.28 1248.85 171.16 1247.73 170.6C1247.57 170.52 1247.09 170.92 1246.69 171.16C1245.89 170.76 1246.05 170.04 1245.97 169.4C1244.69 161.48 1244.37 153.48 1244.45 145.48C1244.45 144.6 1244.37 143.64 1244.37 142.28C1243.65 142.84 1243.17 143.08 1242.93 143.48C1241.49 145.16 1240.21 147 1238.61 148.6C1237.09 150.12 1235.49 151.56 1233.65 152.6C1229.17 155.24 1224.53 155.56 1219.81 153.24C1216.93 151.8 1214.77 149.48 1213.09 146.68C1211.17 143.24 1210.21 139.4 1209.73 135.4C1208.85 127.88 1209.65 120.52 1211.49 113.24C1213.49 105.16 1216.45 97.48 1221.25 90.68C1224.05 86.76 1227.09 83.24 1231.33 80.92C1233.17 79.88 1235.09 79.08 1237.09 78.68C1242.29 77.56 1246.77 79.64 1249.17 84.36C1250.45 86.84 1251.25 89.4 1251.33 92.2C1251.33 92.92 1251.49 93.56 1251.57 94.28C1251.81 95.88 1251.97 97.48 1251.33 99.08C1251.49 98.12 1251.65 97.08 1250.93 96.2ZM1212.13 135.16C1211.65 140.6 1213.49 146.2 1216.61 148.68C1215.89 147.24 1215.17 145.8 1214.53 144.28C1213.97 142.76 1213.57 141.16 1213.09 139.64C1212.69 138.2 1212.45 136.68 1212.13 135.16ZM1215.17 137.32C1215.17 140.84 1215.49 144.28 1218.05 147.16C1217.09 143.88 1216.13 140.6 1215.17 137.32ZM1221.49 146.52C1221.17 145.48 1220.85 144.36 1220.53 143.24C1220.29 144.52 1220.21 145.72 1221.49 146.52ZM1274.92 127.56C1275.48 129.64 1276.84 130.84 1279.16 131.56C1280.28 129.48 1281.32 127.72 1282.36 125.96C1285 121.24 1288.44 117.24 1292.44 113.72C1295.08 111.32 1298.12 109.48 1301.64 108.68C1303.16 108.28 1304.68 108.28 1306.2 108.84C1308.12 109.64 1309 111.24 1308.68 113.32C1308.36 115.32 1307.4 116.92 1306.2 118.36C1303.96 121 1301.4 123.24 1298.6 125.32C1298.12 125.72 1297.64 126.12 1297.16 126.36C1294.76 127.48 1293.72 129.64 1293 131.96C1291.8 135.64 1290.52 139.32 1289.48 143C1288.92 145.08 1288.68 147.24 1288.44 149.32C1288.2 151 1288.52 152.6 1289.24 154.12C1290.28 156.36 1292.04 157.64 1294.52 157.32C1295.88 157.24 1297.24 156.92 1298.52 156.44C1301.8 155.48 1304.84 153.8 1307.8 152.04C1311.08 150.04 1314.36 147.88 1317.64 145.88C1318.28 145.48 1319 145.16 1319.72 145C1320.12 144.92 1320.6 145.24 1321.24 145.48C1320.76 146.04 1320.52 146.36 1320.2 146.6C1314.68 150.36 1309.32 154.36 1303.24 157.4C1301.32 158.28 1299.32 159.08 1297.32 159.8C1293.8 160.92 1290.2 161 1286.6 160.2C1282.2 159.24 1279.4 156.36 1277.72 152.36C1275.72 147.56 1275.88 142.68 1277.24 137.72C1277.48 137 1277.64 136.2 1277.8 135.48C1277.8 135.24 1277.72 135 1277.72 134.6C1277 134.36 1276.28 134.12 1275.56 134.04C1269.24 133.16 1265.72 129.24 1263.96 123.4C1263.16 120.68 1262.92 117.88 1263.24 115C1263.8 109.88 1265.4 105.16 1267.48 100.44C1269.24 96.44 1271.32 92.6 1273.8 89C1276.36 85.24 1279.24 81.64 1282.68 78.68C1286.36 75.4 1290.28 72.52 1294.84 70.52C1298.36 68.92 1302.12 67.88 1306.04 68.12C1306.76 68.12 1307.4 68.12 1308.12 68.28C1314.04 69.72 1315.4 74.2 1314.28 78.28C1313.56 80.68 1312.52 82.84 1311.32 84.84C1309.4 88.12 1307 91.08 1304.36 93.8C1302.52 95.64 1300.44 97.16 1298.12 98.2C1296.12 99.16 1294.2 99.4 1292.12 97.88C1292.44 97.56 1292.6 97.16 1292.84 97.16C1297.16 96.6 1300.2 93.96 1303.08 91.08C1305.88 88.04 1308.36 84.76 1310.04 80.92C1310.6 79.8 1311.32 78.68 1311.4 77.48C1311.56 75.32 1310.92 73.4 1309.32 71.8C1308.76 71.24 1307.96 71.08 1307.16 71.4C1305.96 71.8 1304.76 72.28 1303.72 72.92C1300.2 75.32 1297.32 78.44 1294.92 81.96C1292.12 86.04 1289.32 90.12 1286.84 94.44C1284.28 98.92 1281.88 103.48 1279.88 108.2C1278.12 112.44 1276.2 116.6 1274.92 120.92C1274.28 123.16 1274.2 125.32 1274.92 127.56ZM1304.92 114.12C1305.24 113.24 1305.08 112.44 1304.28 111.8C1303.32 111.72 1302.92 112.36 1302.44 113C1300.12 116.04 1298.04 119.24 1296.92 122.92C1297.16 123 1297.24 123.08 1297.24 123.08C1297.48 123 1297.8 122.92 1297.96 122.84C1300.12 121.08 1302.12 119.24 1303.56 116.84C1304.12 115.96 1304.52 115.08 1304.92 114.12ZM1266.68 110.44C1264.36 116.2 1264.52 123.72 1267.08 126.68C1266.76 123.8 1266.28 121.16 1266.2 118.52C1266.12 115.96 1266.52 113.4 1266.68 110.44ZM1279.48 147.8C1279.24 145.64 1279.24 143.4 1279.16 141.24C1277.4 146.68 1278.36 152.28 1280.92 154.28C1280.44 152.12 1279.8 149.96 1279.48 147.8ZM1269 114.92C1267.96 118.36 1267.56 121.56 1268.84 124.84C1269 124.84 1269.16 124.84 1269.4 124.84C1269.4 121.72 1269.4 118.6 1269.4 115.48C1269.4 115.32 1269.24 115.24 1269 114.92ZM1283.16 152.68C1282.84 149.4 1282.52 146.2 1282.2 142.84C1280.76 146.68 1281.16 150.76 1283.16 152.68ZM1286.68 147.8C1286.36 149.48 1285.96 151.24 1287.4 153.24C1287.56 151.08 1287 149.4 1286.68 147.8ZM1273.48 126.2C1273.4 125 1273.56 123.96 1272.84 122.44C1272.44 124.84 1272.44 124.84 1273.48 126.2ZM1372.21 74.2C1372.29 74.36 1372.45 74.6 1372.61 74.76C1372.85 74.52 1373.09 74.36 1373.41 74.12C1374.69 75.48 1374.05 77.4 1375.09 79.08C1375.57 79.08 1376.21 79.24 1376.93 79.16C1381.57 78.92 1386.13 78.68 1390.77 78.44C1396.21 78.04 1401.49 77.16 1406.77 75.64C1407.97 75.32 1409.09 74.68 1410.29 74.2C1411.09 73.96 1411.89 73.64 1412.77 73.56C1413.33 73.4 1413.89 73.72 1413.97 74.6C1413.33 75.4 1412.37 75.72 1411.41 76.12C1406.93 78.04 1402.05 78.92 1397.25 79.64C1390.77 80.6 1384.21 80.84 1377.73 81.24C1377.17 81.24 1376.53 81.32 1375.97 81.4C1375.81 81.4 1375.65 81.56 1375.33 81.72C1375.33 82.28 1375.17 83 1375.17 83.64C1375.41 88.68 1375.57 93.72 1375.81 98.84C1376.21 107.16 1376.69 115.4 1377.09 123.72C1377.41 129.56 1377.57 135.4 1377.81 141.24C1378.21 149.64 1378.61 158.04 1379.01 166.44C1379.09 167.72 1379.33 169 1377.97 169.8C1377.57 170.04 1377.49 170.68 1377.09 171.32C1376.53 170.84 1376.05 170.52 1375.57 170.04C1375.33 170.52 1375.09 170.92 1374.85 171.48C1374.53 171.24 1374.13 171 1373.73 170.76C1373.49 171 1373.17 171.24 1372.85 171.56C1372.77 171.4 1372.53 171.32 1372.53 171.16C1371.81 167.24 1371.09 163.24 1370.37 159.32C1368.53 148.44 1366.85 137.56 1365.73 126.68C1364.93 119.72 1364.29 112.84 1363.57 105.96C1362.85 98.84 1363.01 91.72 1363.09 84.6C1363.09 84.04 1363.01 83.4 1362.93 82.76C1361.65 82.44 1360.45 82.68 1359.25 82.92C1355.89 83.48 1352.53 84.12 1349.17 84.92C1345.57 85.72 1342.13 87.16 1339.09 89.32C1338.05 90.04 1337.09 90.92 1336.21 91.8C1333.89 94.12 1333.49 95.32 1333.49 98.36C1331.97 99 1330.69 98.92 1329.81 97.96C1329.17 97.32 1329.09 96.68 1329.33 95.8C1329.81 93.88 1330.77 92.2 1332.21 90.68C1334.77 87.96 1337.89 86.04 1341.33 84.6C1345.01 83.16 1348.85 82.2 1352.69 81.56C1355.33 81.08 1357.97 80.76 1360.61 80.36C1361.57 80.28 1362.45 80.04 1363.17 79.88C1364.45 78.12 1363.81 75.64 1365.89 74.2C1366.37 76.04 1364.85 77.64 1365.81 79.56C1366.61 78.52 1366.45 77.48 1366.69 76.44C1366.85 75.56 1367.09 74.68 1367.33 73.8C1367.41 73.48 1367.81 73.32 1368.21 73C1369.25 75.16 1367.25 77.32 1368.77 79.64C1369.01 78.84 1369.17 78.52 1369.25 78.12C1369.33 77.08 1369.33 76.04 1369.33 75.08C1369.41 74.2 1369.33 73.16 1370.29 72.84C1371.41 72.52 1371.81 73.48 1372.21 74.2ZM1366.13 84.52C1366.05 83.88 1365.97 83.24 1365.89 82.6C1365.65 82.6 1365.41 82.6 1365.17 82.6C1365.09 83.24 1364.85 83.88 1364.85 84.52C1364.85 88.2 1364.77 91.88 1364.85 95.56C1365.01 100.12 1365.17 104.68 1365.57 109.16C1366.69 119.64 1367.97 130.12 1369.17 140.6C1369.17 140.92 1369.25 141.16 1369.33 141.48C1369.57 140.52 1369.49 139.56 1369.41 138.6C1369.01 134.52 1368.61 130.44 1368.21 126.36C1367.81 121.56 1367.41 116.76 1367.01 111.96C1366.69 107.64 1366.37 103.24 1366.21 98.92C1366.05 94.12 1366.13 89.32 1366.13 84.52ZM1369.09 82.92C1369.09 82.68 1368.85 82.44 1368.53 82.04C1368.29 82.36 1368.05 82.6 1368.05 82.76C1367.41 100.36 1369.41 117.8 1371.49 135.24C1371.57 134.44 1371.65 133.56 1371.57 132.76C1371.17 127.48 1370.77 122.12 1370.45 116.84C1369.81 106.12 1369.09 95.48 1369.17 84.68C1369.17 84.12 1369.17 83.48 1369.09 82.92ZM1373.01 82.36C1372.93 95.64 1373.81 108.52 1375.25 121.32C1375.25 119.88 1375.33 118.44 1375.25 117.08C1375.01 110.04 1374.69 103 1374.37 95.96C1374.21 92.28 1374.05 88.6 1373.81 84.92C1373.81 84.12 1373.97 83.24 1373.01 82.36ZM1370.05 145.48C1370.05 145.16 1370.05 144.84 1370.05 144.52C1369.97 144.52 1369.81 144.52 1369.73 144.52C1369.81 144.84 1369.81 145.16 1369.89 145.48C1369.89 145.48 1369.97 145.48 1370.05 145.48Z" fill="#FFE1BD"/>
</g>
<defs>
<filter id="filter0_dddddd_3_3" x="-10.7832" y="0.696808" width="1491.94" height="249.566" filterUnits="userSpaceOnUse" color-interpolation-filters="sRGB">
<feFlood flood-opacity="0" result="BackgroundImageFix"/>
<feColorMatrix in="SourceAlpha" type="matrix" values="0 0 0 0 0 0 0 0 0 0 0 0 0 0 0 0 0 0 127 0" result="hardAlpha"/>
<feOffset/>
<feGaussianBlur stdDeviation="0.7998"/>
<feColorMatrix type="matrix" values="0 0 0 0 1 0 0 0 0 0.882353 0 0 0 0 0.741176 0 0 0 1 0"/>
<feBlend mode="normal" in2="BackgroundImageFix" result="effect1_dropShadow_3_3"/>
<feColorMatrix in="SourceAlpha" type="matrix" values="0 0 0 0 0 0 0 0 0 0 0 0 0 0 0 0 0 0 127 0" result="hardAlpha"/>
<feOffset/>
<feGaussianBlur stdDeviation="1.5996"/>
<feColorMatrix type="matrix" values="0 0 0 0 1 0 0 0 0 0.882353 0 0 0 0 0.741176 0 0 0 1 0"/>
<feBlend mode="normal" in2="effect1_dropShadow_3_3" result="effect2_dropShadow_3_3"/>
<feColorMatrix in="SourceAlpha" type="matrix" values="0 0 0 0 0 0 0 0 0 0 0 0 0 0 0 0 0 0 127 0" result="hardAlpha"/>
<feOffset/>
<feGaussianBlur stdDeviation="5.5986"/>
<feColorMatrix type="matrix" values="0 0 0 0 1 0 0 0 0 0.882353 0 0 0 0 0.741176 0 0 0 1 0"/>
<feBlend mode="normal" in2="effect2_dropShadow_3_3" result="effect3_dropShadow_3_3"/>
<feColorMatrix in="SourceAlpha" type="matrix" values="0 0 0 0 0 0 0 0 0 0 0 0 0 0 0 0 0 0 127 0" result="hardAlpha"/>
<feOffset/>
<feGaussianBlur stdDeviation="11.1972"/>
<feColorMatrix type="matrix" values="0 0 0 0 1 0 0 0 0 0.882353 0 0 0 0 0.741176 0 0 0 1 0"/>
<feBlend mode="normal" in2="effect3_dropShadow_3_3" result="effect4_dropShadow_3_3"/>
<feColorMatrix in="SourceAlpha" type="matrix" values="0 0 0 0 0 0 0 0 0 0 0 0 0 0 0 0 0 0 127 0" result="hardAlpha"/>
<feOffset/>
<feGaussianBlur stdDeviation="19.1952"/>
<feColorMatrix type="matrix" values="0 0 0 0 1 0 0 0 0 0.882353 0 0 0 0 0.741176 0 0 0 1 0"/>
<feBlend mode="normal" in2="effect4_dropShadow_3_3" result="effect5_dropShadow_3_3"/>
<feColorMatrix in="SourceAlpha" type="matrix" values="0 0 0 0 0 0 0 0 0 0 0 0 0 0 0 0 0 0 127 0" result="hardAlpha"/>
<feOffset/>
<feGaussianBlur stdDeviation="33.5916"/>
<feColorMatrix type="matrix" values="0 0 0 0 1 0 0 0 0 0.882353 0 0 0 0 0.741176 0 0 0 1 0"/>
<feBlend mode="normal" in2="effect5_dropShadow_3_3" result="effect6_dropShadow_3_3"/>
<feBlend mode="normal" in="SourceGraphic" in2="effect6_dropShadow_3_3" result="shape"/>
</filter>
</defs>
</svg>
